<svg width="13" height="16" viewBox="0 0 13 16" fill="none" xmlns="http://www.w3.org/2000/svg">
<path d="M4.64209 15.3645C2.37342 15.3515 0.496826 10.7203 0.496826 8.36183C0.496826 4.50919 3.38696 3.66575 4.50079 3.66575C5.00275 3.66575 5.53874 3.86287 6.01149 4.0373C6.34208 4.15898 6.68398 4.28459 6.87414 4.28459C6.98796 4.28459 7.25617 4.17774 7.49298 4.08399C7.99801 3.88293 8.62644 3.63306 9.35824 3.63306C9.35955 3.63306 9.3613 3.63306 9.36258 3.63306C9.90902 3.63306 11.5658 3.75298 12.5619 5.24885L12.7953 5.59948L12.4595 5.85287C11.9797 6.21484 11.1044 6.87512 11.1044 8.18304C11.1044 9.73212 12.0957 10.3279 12.572 10.6144C12.7822 10.7409 12.9998 10.8713 12.9998 11.1565C12.9998 11.3427 11.5135 15.3414 9.35517 15.3414C8.82704 15.3414 8.45373 15.1827 8.12445 15.0427C7.79127 14.9009 7.50385 14.7789 7.02892 14.7789C6.78819 14.7789 6.48377 14.8927 6.16148 15.0135C5.72106 15.1779 5.22256 15.3645 4.65692 15.3645H4.64209Z" fill="white"/>
<path d="M9.58701 0.121094C9.64322 2.14786 8.19377 3.55394 6.746 3.46576C6.50744 1.84832 8.19359 0.121094 9.58701 0.121094Z" fill="white"/>
</svg>
