<svg width="14" height="16" viewBox="0 0 14 16" fill="none" xmlns="http://www.w3.org/2000/svg">
<path d="M13.0541 12.3602C12.6071 12.1772 12.4159 11.9342 12.4344 11.5717C12.4534 11.1486 12.2134 10.8387 12.0994 10.7162C12.1683 10.4531 12.3695 9.54304 12.0996 8.75253C11.8095 7.90639 10.9239 6.6141 10.0101 5.34379C9.636 4.82212 9.61831 4.25506 9.59787 3.59845C9.57827 2.97217 9.55618 2.26227 9.20693 1.47311C8.8272 0.613832 8.06523 0.121094 7.11628 0.121094C6.55178 0.121094 5.97233 0.297518 5.52642 0.605085C4.61331 1.23526 4.73401 2.60922 4.81388 3.51838C4.82482 3.64288 4.83512 3.76048 4.84111 3.86088C4.89429 4.7513 4.84591 5.2206 4.78264 5.36324C4.74171 5.45645 4.54019 5.72173 4.32694 6.00261C4.10638 6.29309 3.85634 6.62234 3.65138 6.92916C3.40683 7.29835 3.20942 7.86266 3.0185 8.40838C2.87881 8.8077 2.74687 9.18489 2.61842 9.41029C2.37498 9.84391 2.43555 10.2482 2.48613 10.4351C2.39397 10.4991 2.26083 10.6252 2.14842 10.8628C2.01258 11.1526 1.73695 11.3084 1.1638 11.4186C0.900412 11.4725 0.71879 11.5833 0.623831 11.7478C0.485641 11.9872 0.560908 12.2881 0.629579 12.4937C0.731035 12.796 0.667812 12.9873 0.552862 13.3347C0.526373 13.4148 0.496336 13.5056 0.465899 13.6057C0.41797 13.7637 0.435262 13.9073 0.517177 14.0326C0.733634 14.3635 1.36526 14.4802 2.01548 14.557C2.40371 14.6031 2.82863 14.7583 3.2396 14.9086C3.64228 15.0557 4.05865 15.2079 4.43714 15.2541C4.49466 15.2613 4.55164 15.265 4.60657 15.265C5.17802 15.265 5.43621 14.8858 5.51807 14.73C5.72334 14.6881 6.43128 14.554 7.16092 14.536C7.8894 14.5152 8.59425 14.659 8.79391 14.7038C8.85669 14.8239 9.02216 15.0983 9.28595 15.2397C9.43094 15.319 9.6327 15.3644 9.83936 15.3644C9.83941 15.3644 9.83936 15.3644 9.83941 15.3644C10.0601 15.3644 10.48 15.3123 10.8123 14.9627C11.1438 14.6114 11.9719 14.163 12.5766 13.8356C12.7116 13.7625 12.8378 13.6941 12.9485 13.6324C13.2882 13.4441 13.4736 13.175 13.4571 12.8942C13.4433 12.6609 13.2889 12.4563 13.0541 12.3602ZM5.53387 12.2926C5.49158 11.9947 5.1084 11.6993 4.66464 11.3573C4.3018 11.0775 3.89052 10.7605 3.77722 10.492C3.54307 9.93817 3.72764 8.96429 4.04946 8.4628C4.20849 8.21171 4.33838 7.83092 4.46403 7.46268C4.59967 7.06505 4.73996 6.65393 4.89684 6.47396C5.14528 6.19298 5.37489 5.64626 5.41557 5.2154C5.64822 5.4375 6.00911 5.71933 6.34252 5.71933C6.39385 5.71933 6.44367 5.71264 6.4913 5.69919C6.71941 5.63332 7.05491 5.43945 7.37937 5.25203C7.6591 5.0904 8.00405 4.89109 8.13385 4.87295C8.3564 5.19251 9.64959 8.05433 9.78174 8.97338C9.88629 9.70057 9.77584 10.3017 9.72031 10.5372C9.67563 10.5311 9.62236 10.5261 9.56638 10.5261C9.20618 10.5261 9.11083 10.7227 9.08599 10.8401C9.02211 11.1451 9.01537 12.1205 9.01467 12.3396C8.88442 12.5051 8.22576 13.2844 7.28011 13.4245C6.89493 13.4804 6.53524 13.5088 6.21107 13.5088C5.93399 13.5088 5.75717 13.4874 5.68375 13.4763L5.20856 12.9326C5.39593 12.8401 5.58325 12.6449 5.53387 12.2926ZM6.13686 3.32716C6.12201 3.33356 6.10742 3.34041 6.09308 3.3477C6.09163 3.31552 6.08828 3.28288 6.08313 3.25015C6.03125 2.95152 5.83324 2.73477 5.61238 2.73477C5.59604 2.73477 5.5796 2.73602 5.56155 2.73877C5.43016 2.76066 5.32711 2.85936 5.27063 2.9993C5.32016 2.69224 5.49413 2.46488 5.70054 2.46488C5.94294 2.46488 6.1477 2.79154 6.1477 3.17818C6.1477 3.22691 6.14415 3.27539 6.13686 3.32716ZM8.02035 3.55741C8.04254 3.48674 8.05453 3.41028 8.05453 3.33091C8.05453 2.98036 7.83213 2.70573 7.5482 2.70573C7.27072 2.70573 7.04497 2.98616 7.04497 3.33091C7.04497 3.3544 7.04612 3.37794 7.04831 3.40143C7.03362 3.39578 7.01928 3.39029 7.00528 3.38499C6.97335 3.28828 6.9572 3.18737 6.9572 3.08437C6.9572 2.6652 7.22509 2.32415 7.55445 2.32415C7.88375 2.32415 8.15169 2.6652 8.15169 3.08437C8.15169 3.25874 8.10356 3.42517 8.02035 3.55741ZM7.7775 4.37326C7.77275 4.39445 7.76266 4.40385 7.651 4.46192C7.59463 4.49126 7.52446 4.5278 7.43665 4.58127L7.37797 4.61681C7.14217 4.75975 6.59006 5.09455 6.44018 5.11419C6.33837 5.12789 6.2754 5.0884 6.13381 4.9922C6.10187 4.97046 6.06789 4.94737 6.03165 4.92413C5.77641 4.75665 5.61223 4.57218 5.59369 4.50006C5.67691 4.43574 5.88317 4.27476 5.98877 4.17945C6.20313 3.98013 6.41884 3.84619 6.52559 3.84619C6.53124 3.84619 6.53633 3.84659 6.54163 3.84759C6.66708 3.86973 6.9765 3.99323 7.2025 4.08339C7.30695 4.12507 7.39716 4.16105 7.46064 4.18384C7.6606 4.25251 7.76486 4.34038 7.7775 4.37326ZM9.57408 13.6878C9.68688 13.1789 9.81682 12.4867 9.79578 12.0786C9.79093 11.9859 9.78274 11.885 9.77479 11.7875C9.75995 11.605 9.73791 11.3339 9.76065 11.2535C9.76514 11.2514 9.77014 11.2496 9.77569 11.2481C9.77664 11.4814 9.82732 11.9467 10.1995 12.109C10.3104 12.1574 10.4371 12.1819 10.5761 12.1819C10.9489 12.1819 11.3626 11.999 11.532 11.8296C11.6317 11.7298 11.7157 11.6077 11.7744 11.5111C11.7873 11.5487 11.7952 11.5979 11.791 11.6613C11.7689 12.0054 11.9361 12.4619 12.2544 12.6301L12.3007 12.6544C12.4141 12.7139 12.7151 12.872 12.72 12.947C12.7199 12.947 12.7174 12.9558 12.7006 12.9714C12.6252 13.0403 12.3598 13.1759 12.1031 13.307C11.6477 13.5395 11.1316 13.803 10.8998 14.0468C10.5734 14.3903 10.2043 14.621 9.9814 14.621C9.95456 14.621 9.93012 14.6176 9.90838 14.6107C9.66629 14.5352 9.46702 14.1859 9.57408 13.6878ZM1.32208 12.3897C1.29739 12.2741 1.2779 12.1829 1.29884 12.0945C1.31403 12.0291 1.63724 11.9589 1.77529 11.929C1.96935 11.8868 2.17007 11.8433 2.30131 11.7636C2.47878 11.6561 2.57489 11.4579 2.65965 11.2829C2.72103 11.1564 2.7844 11.0256 2.85982 10.9827C2.86407 10.9802 2.87056 10.9773 2.88296 10.9773C3.02425 10.9773 3.32072 11.2743 3.49155 11.5402C3.53488 11.6072 3.61514 11.7415 3.708 11.897C3.98573 12.3617 4.36602 12.9981 4.56463 13.2115C4.74361 13.4032 5.03333 13.7719 4.96206 14.0881C4.90989 14.3335 4.6321 14.533 4.56658 14.5771C4.54279 14.5825 4.51336 14.5853 4.47872 14.5853C4.09858 14.5853 3.34611 14.269 2.94183 14.0991L2.88201 14.0739C2.65626 13.9793 2.28771 13.9197 1.93132 13.862C1.64774 13.816 1.25941 13.7532 1.19504 13.6964C1.14286 13.6379 1.20338 13.4477 1.25676 13.2798C1.29519 13.1591 1.33488 13.0344 1.35662 12.9038C1.38745 12.6955 1.35117 12.5259 1.32208 12.3897Z" fill="white"/>
</svg>
