<svg width="56" height="34" viewBox="0 0 56 34" fill="none" xmlns="http://www.w3.org/2000/svg">
<path d="M0 2C0 0.89543 0.895431 0 2 0H54C55.1046 0 56 0.895431 56 2V32C56 33.1046 55.1046 34 54 34H2C0.89543 34 0 33.1046 0 32V2Z" fill="#030517"/>
<path d="M22.648 7C17.3281 7 13 11.3277 13 16.6471C13 21.9666 17.3281 26.2942 22.648 26.2942C27.9679 26.2942 32.2961 21.9666 32.2961 16.6471C32.2961 11.3277 27.9679 7 22.648 7Z" fill="#FFBC4F"/>
<path d="M33.3521 7C28.0322 7 23.7041 11.3277 23.7041 16.6471C23.7041 21.9666 28.0322 26.2942 33.3521 26.2942C38.672 26.2942 43.0002 21.9666 43.0002 16.6471C43.0002 11.3277 38.672 7 33.3521 7Z" fill="#F56161"/>
<path d="M27.4616 19.813C27.4616 19.3276 27.0682 18.9341 26.5827 18.9341H23.9785C24.1275 19.5448 24.3347 20.1328 24.594 20.6919H26.5827C27.0682 20.6919 27.4616 20.2985 27.4616 19.813Z" fill="#FFBC4F"/>
<path d="M27.4621 14.0928C27.4621 13.6076 27.0686 13.2139 26.5832 13.2139H24.3362C24.1211 13.7767 23.957 14.3645 23.8501 14.9717H26.5832C27.0686 14.9717 27.4621 14.5783 27.4621 14.0928Z" fill="#FFBC4F"/>
<path d="M29.8798 16.9529C29.8798 16.4674 29.4861 16.074 29.0009 16.074H23.7215C23.7103 16.2637 23.7041 16.4546 23.7041 16.6471C23.7041 17.0481 23.729 17.4434 23.7769 17.8318H29.0009C29.4861 17.8318 29.8798 17.4384 29.8798 16.9529Z" fill="#FFBC4F"/>
</svg>
