<svg width="56" height="34" viewBox="0 0 56 34" fill="none" xmlns="http://www.w3.org/2000/svg">
<path d="M0 2C0 0.89543 0.895431 0 2 0H54C55.1046 0 56 0.895431 56 2V32C56 33.1046 55.1046 34 54 34H2C0.89543 34 0 33.1046 0 32V2Z" fill="#030517"/>
<path d="M7 11.197V11.3944C11.2046 12.4056 14.1237 14.9622 15.2794 17.8992L14.0644 12.24C13.8615 11.4666 13.2469 11.2239 12.5196 11.1971L7 11.197Z" fill="#F7981D"/>
<path d="M21.6851 23.4183L23.7547 11.197H27.1055L25.0359 23.4183H21.6851Z" fill="#FAFAFA"/>
<path d="M36.9651 11.5129C36.301 11.2653 35.2606 11 33.9614 11C30.6498 11 28.3171 12.658 28.297 15.0333C28.2787 16.789 29.9622 17.7683 31.234 18.3534C32.5383 18.9512 32.9769 19.3348 32.9706 19.8691C32.9624 20.6883 31.9285 21.0628 30.965 21.0628C29.624 21.0623 28.9112 20.8774 27.8106 20.4213L27.3788 20.2266L26.9082 22.9625C27.6911 23.3038 29.1388 23.5997 30.6417 23.6147C34.1638 23.6139 36.4512 21.9765 36.4769 19.4392C36.4897 18.0491 35.5966 16.9911 33.6633 16.1187C32.4917 15.554 31.7743 15.1769 31.782 14.6038C31.782 14.096 32.3897 13.5528 33.7013 13.5528C34.7971 13.5357 35.5911 13.7732 36.2099 14.0209L36.5098 14.1619L36.9651 11.5129Z" fill="#FAFAFA"/>
<path d="M42.6778 11.197C41.875 11.197 41.2949 11.4422 40.9421 12.2378L35.9761 23.4187H39.5238L40.2136 21.5459H44.4523L44.8461 23.4187H48.0001L45.2408 11.1973H42.6779L42.6778 11.197ZM41.1549 19.1005C41.4317 18.3967 42.4895 15.6847 42.4895 15.6847C42.4703 15.7168 42.7649 14.9775 42.9341 14.5188L43.1609 15.5719C43.1609 15.5719 43.8019 18.4893 43.9364 19.1009H41.1549V19.1005Z" fill="#FAFAFA"/>
<path d="M15.5746 19.5745L15.2795 17.8991C14.6679 15.9461 12.7699 13.8329 10.6431 12.7742L13.6036 23.4183H17.1522L22.474 11.197H18.9262L15.5746 19.5745Z" fill="#FAFAFA"/>
</svg>
